<svg width="440" height="142" viewBox="0 0 440 142" fill="none" xmlns="http://www.w3.org/2000/svg">
<g clip-path="url(#clip0_37_137162)">
<path d="M512.115 21.8032L512.057 21.7105C501.101 4.65869 480.247 4.35074 465.31 12.8586L465.182 12.9311C449.84 21.1028 436.077 21.0112 423.1 12.647C410.792 4.73824 395.64 4.71747 385.4 12.5986L385.106 12.8098C380.537 15.8717 375.813 19.0325 366.527 19.0198C357.243 19.0071 352.531 15.833 347.976 12.7642L347.973 12.7622L347.679 12.5502C337.407 4.60624 321.92 4.58501 311.65 12.4975L311.356 12.7087L311.351 12.712C306.781 15.7729 302.065 18.9314 292.779 18.9187C283.493 18.906 278.781 15.732 274.226 12.6632L274.223 12.6611L273.923 12.4458C263.657 4.48862 248.173 4.46739 237.903 12.3931L237.603 12.6076C233.08 15.6381 228.401 18.771 219.276 18.8147L219.217 18.8146C210.092 18.7459 205.423 15.6002 200.907 12.5573L200.61 12.3453C190.357 4.39475 174.868 4.37352 164.587 12.2959L164.29 12.5071C159.721 15.569 155 18.7299 145.713 18.7171C136.427 18.7044 131.713 15.529 127.16 12.4595L126.857 12.2409C116.609 4.2854 101.125 4.26418 90.8372 12.1948L90.5399 12.406L90.5352 12.4092C85.9678 15.4701 81.2545 18.6288 71.9661 18.616C62.6872 18.6033 57.9772 15.4332 53.4226 12.3677L53.4039 12.3551L53.1072 12.1398C42.8827 4.20583 27.733 4.18507 15.4106 12.0882C8.70687 16.4134 1.5732 18.5295 -5.78353 18.3425C-12.4311 18.183 -19.4619 16.1318 -26.6762 12.252L-26.8037 12.1791C-41.7336 3.60384 -62.5891 3.84305 -73.5626 20.8962L-73.6252 20.9937C-84.1249 36.6936 -82.718 60.2471 -76.0633 74.4382L-76.0398 74.4944C-68.5844 90.7545 -68.6011 110.049 -76.0915 127.435C-83.2216 144.098 -83.1968 163.494 -76.018 178.038L-75.8671 178.368C-73.0947 184.803 -70.2324 191.459 -70.2335 203.445C-69.9469 215.044 -72.7772 222.487 -75.9528 229.7L-76.0892 229.991C-83.319 244.553 -83.3997 263.949 -76.2973 280.6C-68.8573 297.953 -68.8907 317.251 -76.3907 333.529L-76.4171 333.588C-83.1163 347.786 -84.5906 371.344 -74.1311 387.034L-74.0715 387.125C-63.1156 404.177 -42.2595 404.488 -27.3243 395.977L-27.1937 395.908C-11.8551 387.733 1.90804 387.825 14.8854 396.192C27.1931 404.101 42.3484 404.122 52.5877 396.237L52.8822 396.026C57.4482 392.967 62.1726 389.807 71.4587 389.819C80.7427 389.832 85.4542 393.006 90.0096 396.075L90.0126 396.077L90.3065 396.289C100.578 404.23 116.065 404.254 126.335 396.342L126.632 396.127L126.64 396.122C131.207 393.065 135.923 389.908 145.206 389.92C154.493 389.933 159.204 393.107 163.76 396.176L163.763 396.178C168.48 399.352 172.924 402.342 182.067 402.354C190.965 402.413 194.92 399.774 199.494 396.723L199.514 396.71L199.521 396.705C204.124 393.635 209.342 390.154 218.665 390.021L218.813 390.021C228.128 390.181 233.34 393.674 237.94 396.757L237.948 396.762L237.954 396.766C242.494 399.809 246.422 402.442 255.137 402.454L255.632 402.455C264.334 402.467 268.275 399.844 272.831 396.807C277.488 393.7 282.769 390.185 292.233 390.122L292.316 390.122C301.804 390.223 307.055 393.747 311.686 396.856L311.697 396.863C316.265 399.933 320.202 402.572 329.108 402.556L329.155 402.556C337.998 402.619 341.975 399.971 346.588 396.9L346.602 396.89C351.265 393.791 356.554 390.276 365.984 390.223L366.068 390.223C375.582 390.334 380.816 393.852 385.435 396.957L385.451 396.968C389.975 400.012 393.888 402.645 402.711 402.657L402.862 402.657C412.038 402.669 417.526 399.581 422.833 396.591C428.194 393.573 433.736 390.455 443.018 390.467L443.11 390.468C452.519 390.662 459.379 393.956 465.431 396.869L465.448 396.877C472.052 400.05 477.756 402.79 486.648 402.178L486.812 402.172C505.788 401.523 519.445 383.626 519.285 359.613L519.282 359.557L519.285 359.5C519.372 348.065 517.003 342.097 514.261 335.191L514.256 335.178C511.575 328.436 508.539 320.793 508.437 308.337L508.437 308.18C508.59 295.693 511.634 287.622 514.318 280.504L514.319 280.501C516.981 273.444 519.494 266.779 519.426 255.432L519.427 255.331C519.502 243.857 517.064 238.172 514.239 231.589L514.234 231.576C511.455 225.097 508.306 217.756 508.216 205.356C508.13 192.466 511.408 184.823 514.3 178.08L514.304 178.07C517.168 171.397 519.643 165.631 519.566 154.345L519.567 154.282C519.583 142.455 516.868 135.139 514.222 128.095C506.841 110.77 506.895 91.5367 514.375 75.3053L514.401 75.2492C521.1 61.0483 522.575 37.4938 512.115 21.8032Z" fill="#D5E1B9"/>
</g>
<defs>
<clipPath id="clip0_37_137162">
<rect width="440" height="142" fill="white"/>
</clipPath>
</defs>
</svg>
