<svg width="20" height="25" viewBox="0 0 20 25" fill="none" xmlns="http://www.w3.org/2000/svg">
<path d="M14.25 3.41667H16.4167C16.9913 3.41667 17.5424 3.64494 17.9487 4.05127C18.3551 4.4576 18.5833 5.0087 18.5833 5.58333V20.75C18.5833 21.3246 18.3551 21.8757 17.9487 22.2821C17.5424 22.6884 16.9913 22.9167 16.4167 22.9167H3.41667C2.84203 22.9167 2.29093 22.6884 1.8846 22.2821C1.47827 21.8757 1.25 21.3246 1.25 20.75V5.58333C1.25 5.0087 1.47827 4.4576 1.8846 4.05127C2.29093 3.64494 2.84203 3.41667 3.41667 3.41667H5.58333M6.66667 1.25H13.1667C13.765 1.25 14.25 1.73502 14.25 2.33333V4.5C14.25 5.09831 13.765 5.58333 13.1667 5.58333H6.66667C6.06836 5.58333 5.58333 5.09831 5.58333 4.5V2.33333C5.58333 1.73502 6.06836 1.25 6.66667 1.25Z" stroke="#101828" stroke-width="2.5" stroke-linecap="round" stroke-linejoin="round"/>
</svg>
