<svg width="27" height="28" viewBox="0 0 27 28" fill="none" xmlns="http://www.w3.org/2000/svg">
<path d="M15.2194 4.02781C15.2208 2.49307 12.0913 1.25 8.2354 1.25C4.37946 1.25 1.25279 2.49446 1.25 4.02781M1.25 4.02781C1.25 5.56255 4.37666 6.80561 8.2354 6.80561C12.0941 6.80561 15.2208 5.56255 15.2208 4.02781L15.2208 14.8056M1.25 4.02781V20.6945C1.2514 22.2293 4.37806 23.4724 8.2354 23.4724C10.1061 23.4724 11.7952 23.1765 13.0483 22.7001M1.2514 9.5834C1.2514 11.1181 4.37806 12.3612 8.2368 12.3612C12.0955 12.3612 15.2222 11.1181 15.2222 9.5834M13.1322 17.1183C11.872 17.6113 10.1438 17.9169 8.2354 17.9169C4.37806 17.9169 1.2514 16.6738 1.2514 15.1391M23.159 15.5808C25.6137 18.0211 25.6137 21.9795 23.159 24.4198C20.7043 26.8601 16.7227 26.8601 14.268 24.4198C11.8133 21.9795 11.8133 18.0211 14.268 15.5808C16.7227 13.1405 20.7043 13.1405 23.159 15.5808Z" stroke="#101828" stroke-width="2.5" stroke-linecap="round" stroke-linejoin="round"/>
</svg>
