<svg width="66" height="96" viewBox="0 0 66 96" fill="none" xmlns="http://www.w3.org/2000/svg">
<g clip-path="url(#clip0_37_132369)">
<path d="M46.9181 17.429C47.1571 17.54 49.3142 12.2638 54.469 4.97364C55.6613 3.30449 57.35 0.918267 59.4902 0.911171C59.6376 0.94498 59.5096 0.850232 59.6007 1.00258C60.0819 2.18547 60.3304 3.38839 60.3242 4.67354C60.3954 8.05274 58.4772 9.69768 55.7971 16.9874C53.0031 25.0143 53.7245 23.4495 48.9274 32.1537C42.3422 44.2251 43.2284 42.9304 49.5204 32.4993C52.524 27.4026 51.6792 28.8931 53.3145 25.8361C53.6197 25.2142 54.0036 24.6081 54.2976 23.9503L60.1991 25.5936C57.3136 34.5091 49.8099 52.5529 50.2202 52.7211C50.4078 52.7983 53.0109 46.6765 53.4346 45.681C61.0393 27.5094 60.4223 27.6718 61.9844 23.2833C63.5232 19.6249 64.298 19.033 64.8989 14.2406C65.0517 12.8953 65.3449 11.3873 64.5113 10.1689C64.0711 9.54157 63.1807 9.40091 62.62 9.66053C61.5673 10.0854 60.3449 11.4382 59.7067 12.4888C59.0056 13.665 58.8719 14.423 58.9191 14.4359C58.9961 14.4685 59.2529 13.7631 60.0194 12.7008C60.6816 11.798 61.9578 10.5379 62.8271 10.2457C63.2503 10.0959 63.7033 10.2048 63.9626 10.5821C64.6015 11.4937 64.2255 13.2113 64.1029 14.1304C63.6089 17.4215 63.177 18.5117 62.0146 20.9526L62.0295 20.8929L56.1069 18.9375C59.4351 9.65635 61.2816 8.70846 61.2733 4.67521C61.2692 1.97343 60.2708 0.330997 60.166 0.02338C59.8277 0.0467539 59.0359 -0.168203 57.8552 0.375658C55.8845 1.35277 54.8078 3.08411 53.8106 4.50992C52.8163 5.97663 51.9372 7.37406 51.1727 8.67214C48.9941 12.379 46.7115 17.3347 46.9181 17.4298V17.429Z" fill="#F3996C"/>
<path d="M62.5314 45.5929C59.2201 45.8479 50.9048 50.7944 46.5061 56.9167C45.6352 58.128 46.1288 58.7674 45.3627 62.3186C44.9751 64.1234 44.4554 65.6348 43.9705 66.8419C42.9869 69.2565 42.1836 70.4753 42.2635 70.5224C42.2883 70.5383 42.5144 70.2524 42.8851 69.6672C44.5722 67.0113 45.9474 63.3642 46.4394 59.4753C46.5992 58.3334 46.5388 57.9752 47.073 57.2728C47.2382 57.0599 47.3571 56.8399 47.5654 56.6233C49.3258 54.5948 51.5148 52.4769 54.1406 50.6016L58.9257 56.3891C53.2694 63.572 50.0405 65.8205 47.0784 70.7545C45.2902 73.6833 43.3973 77.51 38.1294 80.3157C36.8995 80.9267 35.711 81.5169 34.568 82.0846C33.4263 82.7153 32.4325 83.4799 31.526 84.23C27.9596 87.2548 25.1722 89.9169 23.797 92.2134C23.0922 93.3375 22.6934 94.2979 22.4892 94.9636C22.2801 95.6285 22.2279 95.9925 22.2527 95.9983C22.3583 96.0396 22.6404 94.5671 24.1113 92.4234C25.5433 90.2517 28.3522 87.7094 31.9571 84.7663C32.8619 84.0459 33.8309 83.3276 34.9296 82.7436C36.0758 82.1948 37.2676 81.6238 38.5013 81.0328C45.5987 77.3668 46.1503 72.7642 50.7329 67.2893C52.8701 64.7374 55.3726 62.284 57.6701 59.5212C61.5889 54.8682 65.9814 48.1674 65.9992 47.9307L65.9259 47.6389C65.5184 46.2215 64.0007 45.4568 62.531 45.5916L62.5314 45.5929ZM61.294 53.2595L57.1011 48.7242C58.1712 48.124 59.2885 47.5617 60.4824 47.0767C61.8394 46.5016 63.4321 46.1439 64.4976 47.0759C64.7423 47.2675 64.951 47.6118 65.0032 47.8017C65.115 47.6415 63.7833 49.8219 61.294 53.2595Z" fill="#F3996C"/>
<path d="M42.5277 40.9294C42.584 41.0179 43.3721 40.5562 43.8582 39.2519C45.13 35.9424 42.7385 32.0473 42.1024 29.4407C41.779 28.2495 41.7653 27.4669 41.6179 27.4552C41.5003 27.4368 41.2622 28.2524 41.4299 29.5722C41.7388 32.5332 43.9647 35.7813 43.2015 39.0553C42.9484 40.2257 42.4084 40.8217 42.5273 40.9294H42.5277Z" fill="#F3996C"/>
<path d="M49.0524 28.9749C49.2711 29.0588 50.4049 26.9961 50.5428 25.195C50.711 22.5558 49.0524 20.261 48.3716 18.3281C47.9501 17.2725 47.8768 16.5588 47.7252 16.5596C47.6097 16.55 47.4362 17.328 47.7149 18.5255C48.2868 21.4402 50.3615 23.318 49.3833 27.0912C49.1121 28.2057 48.9183 28.9248 49.052 28.9753L49.0524 28.9749Z" fill="#F3996C"/>
<path d="M53.4528 18.7254C53.5112 18.821 54.1527 18.5489 54.6566 17.6068C55.1623 16.6827 55.3499 15.1764 54.9494 13.6629C54.5444 12.1699 53.8885 11.0033 53.4719 10.1547C53.0366 9.31284 52.7753 8.78317 52.6428 8.81823C52.5165 8.85037 52.5517 9.47479 52.8366 10.4127C53.3571 12.2421 54.8372 14.857 54.0268 17.3359C53.7655 18.1791 53.3522 18.6115 53.4532 18.7258L53.4528 18.7254Z" fill="#F3996C"/>
<path d="M5.37849 73.993C5.30892 74.2368 9.60533 75.5937 11.8378 74.2739C13.6173 73.18 14.0951 69.7398 13.4856 68.0552C12.9547 66.571 11.4722 65.1552 9.18584 64.6848C7.25608 64.3292 6.08207 64.5525 6.08041 64.6539C6.04935 65.0162 9.61238 64.7595 11.6672 66.8982C12.4917 67.7163 12.9307 68.8959 12.7456 70.2507C12.3633 73.4529 11.3193 74.1253 8.41021 74.1078C6.56119 74.0736 5.41203 73.8499 5.3789 73.9935L5.37849 73.993Z" fill="#F3996C"/>
<path d="M18.3021 71.1335C18.2557 71.2596 18.985 71.5396 19.9027 72.3402C20.5946 72.95 20.5847 73.2251 20.4012 73.9734C20.2704 74.5386 20.1238 75.1609 19.6409 75.4134C19.4894 75.494 19.4053 75.489 19.3125 75.4781C19.0392 75.4347 18.5282 75.2294 18.11 75.0987C18.5498 76.1301 18.9071 76.4156 18.7485 77.2921C18.5878 78.2697 17.7037 79.2142 17.0739 79.0151C16.3227 78.8415 13.9924 76.244 13.3891 75.7803C16.5351 72.9283 16.7728 67.478 13.6438 64.4845C14.0682 64.3359 14.7561 63.9936 15.5657 63.3099C16.2001 62.7473 16.8767 61.7505 16.8432 60.4783C16.8047 58.9165 15.6108 57.8772 14.438 58.0904L14.4364 58.0888C14.4351 58.0788 14.4409 58.1055 14.4343 58.0667C14.1076 55.8758 10.9984 55.2213 9.88942 57.5232C9.95195 56.2669 7.83542 55.7184 6.96992 56.4989C6.309 55.9672 5.40789 56.0189 4.7333 56.6663C5.07577 54.1787 5.48989 52.4765 7.12397 49.445C17.6851 29.7617 18.0628 29.8894 23.2205 21.4936L27.9108 23.7224C26.9359 25.8745 26.07 28.0391 23.6694 33.9235L22.7758 36.1148L22.0478 37.9096L21.7177 38.8629L21.6763 38.9819C21.6722 38.9986 21.6564 39.0282 21.6618 39.0345L21.7214 39.0027L21.9604 38.8758L22.4383 38.6221L23.3622 38.1133C23.5129 38.0323 23.6727 37.933 23.8305 37.8274L24.197 37.5665C24.5225 37.3227 24.8323 37.0619 25.1275 36.7876C25.716 36.2375 26.2415 35.634 26.7173 35.0037C27.6697 33.7444 28.4272 32.3716 29.108 31.0184C31.8469 25.6733 35.1441 20.8654 38.0689 16.138C38.1509 16.0024 38.2462 15.8826 38.3294 15.7486L44.5792 18.9617C41.9699 25.4726 42.6337 22.8827 34.0293 36.6799C33.7005 37.228 33.7278 37.2476 34.1113 36.7359C35.2012 35.2287 34.3742 36.4011 38.0259 31.1629C42.0291 25.2388 43.4429 23.7229 45.1461 19.2063C45.8364 17.439 46.5172 15.5746 47.6155 13.8207C49.31 10.9933 52.3533 7.32857 51.0394 4.35215C50.8253 3.73358 50.207 3.08036 49.4372 3.01274C47.6913 2.81198 45.595 4.59173 44.515 6.02756C41.786 9.4318 39.3307 12.3594 37.3128 15.6593C34.3813 20.3537 31.0551 25.165 28.264 30.5802C27.5853 31.9225 26.8589 33.2277 25.9561 34.4181C25.5064 35.0116 25.0157 35.5726 24.4749 36.0768C24.2036 36.3277 23.9208 36.5647 23.6259 36.7855L23.5154 36.8632C27.3534 27.4619 28.5588 24.2997 30.1896 21.239C31.2249 18.839 33.1017 17.1631 33.3659 14.9201C33.6172 13.0435 32.1144 11.0212 30.3714 11.2591C28.6234 11.492 28.0834 13.4262 27.1782 14.6425C26.7678 15.2102 26.2908 15.7428 25.8087 16.2879C23.7986 18.4967 22.471 21.0695 20.9851 23.3927C15.019 32.7682 10.4079 41.6857 6.5173 49.1241C2.52194 56.7068 5.44723 59.3823 0.585966 73.693C0.189661 74.8621 -0.289881 76.1923 0.222376 75.0607C1.72436 71.8151 3.5038 66.0025 4.33493 59.8489C4.99212 61.6224 6.19512 63.4447 5.23189 60.2467C5.10062 59.7237 4.91593 59.1172 4.93829 58.5116C4.9532 57.9055 5.24307 57.2907 5.77769 57.1434C6.16323 57.0052 6.54297 57.2849 6.59391 57.5595L6.60509 57.557C6.61089 57.5867 6.60509 57.6121 6.61296 57.6426L7.50661 57.4331C7.5033 57.4043 7.4917 57.3788 7.48674 57.3504H7.48756C7.41013 57.2552 7.66108 56.9197 8.09921 56.9297C9.69064 56.8099 9.54902 57.8713 9.70058 57.9035C9.71011 57.9072 9.72791 57.8843 9.74199 57.878C9.30966 59.1051 9.27612 62.0269 9.39248 62.3829C8.539 62.2088 7.81347 62.1579 7.2743 62.1391C6.52807 62.1212 6.11727 62.173 6.11395 62.2368C6.06219 62.6279 11.304 62.4309 13.6831 65.8472C14.6302 67.1762 15.0749 69.0582 14.8368 70.9486C14.585 72.8331 13.6421 74.5319 12.3633 75.5111C11.085 76.5504 9.54736 76.4386 8.2632 76.2315C2.51283 75.3863 2.70084 75.7348 8.14476 76.9115C9.96064 77.2838 11.3521 77.356 12.8913 76.2365C13.0184 76.1443 13.1224 76.0162 13.2433 75.9131C13.5932 76.7645 14.8124 78.1928 15.4779 78.8882C15.8054 79.2079 16.1578 79.6571 16.8362 79.8816C18.3688 80.367 20.0596 78.2926 19.6968 76.3997L19.7014 76.3956C19.6683 76.4022 19.7668 76.381 19.8521 76.3467C20.2033 76.219 20.5454 75.9402 20.7615 75.5837C21.0709 75.0716 21.1433 74.5615 21.2183 74.1371C21.2908 73.7293 21.3719 73.1679 21.1201 72.7004C20.5201 71.5872 18.3543 70.8939 18.3009 71.1323L18.3021 71.1335ZM45.1652 6.5468C46.5135 4.72071 49.4926 2.55319 50.3271 4.66311C51.5756 7.4638 48.1836 11.1431 46.4088 14.5941L40.9106 12.0013C42.2511 10.2115 42.3389 10.1172 45.1652 6.54721V6.5468ZM29.1092 13.3019C30.043 11.8414 31.1943 11.9099 31.9467 12.9905C32.7679 14.0636 32.4494 15.5078 31.7028 16.772C31.1885 17.6578 30.5445 18.5647 29.9888 19.5239L26.0394 17.4712C29.1581 13.7814 27.801 15.279 29.1092 13.3023V13.3019ZM9.49394 62.4029C9.63391 62.1788 9.85256 61.1545 10.101 59.6248C10.2559 58.7837 10.4866 57.6726 11.2771 57.2143C12.0855 56.756 13.3497 57.1004 13.4972 58.3843C13.5199 58.583 13.4831 58.8676 13.2562 60.2901C13.7564 59.8222 14.3068 59.1135 14.5478 59.0667C14.6989 59.0133 14.7577 59.0383 14.872 59.0471C15.5478 59.1452 15.9326 59.856 15.9752 60.5209C16.0448 61.4667 15.6054 62.2844 15.0981 62.8437C14.414 63.5658 13.7837 64.0149 13.445 64.2816C12.3252 63.2941 10.9719 62.7185 9.49352 62.4025L9.49394 62.4029Z" fill="#F3996C"/>
<path d="M14.6062 79.2246C14.4554 79.3256 15.3379 80.6346 14.385 81.072C14.0997 81.2148 13.5514 81.3341 13.1344 81.1709C13.0963 81.1985 11.4167 78.0589 11.439 78.1002C11.6022 78.844 11.972 80.4856 11.8788 80.1404C11.9161 80.2923 12.2205 81.6084 12.2449 81.9515C12.2093 82.4544 12.1091 82.4102 11.8171 82.5007C11.0729 82.5838 10.3404 82.1823 9.99833 81.6121C9.63018 81.0282 9.51837 80.3032 9.41526 79.7013C8.97878 76.9394 8.68973 77.1548 8.73321 79.766C8.75972 80.3929 8.77173 81.2089 9.23139 82.0725C10.0625 83.6502 12.2441 83.8305 12.8681 83.0012C13.0992 82.7437 13.1882 82.2971 13.1887 82.1501C13.1882 82.1422 13.1497 82.0888 13.1787 82.1067C13.0483 82.093 13.5808 82.1485 13.8856 82.0658C14.202 81.9944 14.4902 81.8976 14.7627 81.7215C15.3536 81.3759 15.4973 80.6333 15.369 80.2343C15.123 79.3908 14.6534 79.1708 14.6066 79.2251L14.6062 79.2246Z" fill="#F3996C"/>
<path d="M8.539 81.3133C8.44293 81.322 8.49883 81.8813 7.91079 82.1685C7.6557 82.2879 7.25153 82.2474 6.91568 81.9898C6.31232 81.5395 6.24647 80.6133 6.10857 79.8578C5.69902 80.155 4.85299 81.201 4.17591 81.0824C3.91668 81.0474 3.65206 80.8312 3.48931 80.5619C2.62009 79.1432 4.7213 76.2157 4.5395 76.0558C4.3192 75.8367 2.60477 77.6807 2.3886 79.584C2.26561 80.4509 2.71865 81.7882 4.02476 82.047C4.82855 82.1814 5.38926 81.6772 5.54166 81.5983L5.54455 81.5912L5.55905 81.5674C5.44517 81.2857 5.87667 82.3722 6.48749 82.656C7.07139 83.0104 7.78325 82.9903 8.21144 82.666C8.9498 82.1142 8.71086 81.2456 8.53942 81.3141L8.539 81.3133Z" fill="#F3996C"/>
<path d="M26.7227 68.4993C27.1844 69.0507 27.5811 69.5441 27.9915 70.2323C28.4243 70.9791 28.8914 71.9729 28.7754 73.0259C28.7162 73.5381 28.5017 74.0786 28.1331 74.4455C26.9136 75.6818 24.1924 75.6668 23.8715 74.2218C23.5874 73.1795 24.1009 72.3256 24.838 72.0947C25.5288 71.8668 26.1218 72.4157 26.3019 72.7964C26.5032 73.2029 26.4208 73.4963 26.4978 73.5168C26.5359 73.5485 26.7881 73.2622 26.6568 72.6682C26.434 71.818 25.554 71.2232 24.6753 71.424C23.5311 71.6615 22.647 72.9049 23.0097 74.4597C23.2831 75.7089 24.7503 76.6673 26.8121 76.2015C30.7002 75.2907 30.429 70.9298 27.0937 68.3232C29.1929 67.1933 31.4725 64.9786 31.5405 62.5941C31.5686 60.9767 30.9081 59.6243 30.2161 58.5587C28.8516 56.4931 26.7115 54.8711 24.3192 54.4817C22.9348 53.8385 21.3467 54.2262 20.6775 55.5794C20.0588 56.8357 20.2832 58.2899 21.109 59.0742C21.5123 59.4595 22.0184 59.6732 22.4739 59.7032C22.9153 59.788 23.3986 59.6978 23.7199 59.4695C24.0533 59.2508 24.2546 58.9077 24.2732 58.5892C24.2939 58.2762 24.1862 58.0291 24.0653 57.8675C23.7999 57.5386 23.5398 57.5704 23.5485 57.5925C23.5319 57.6325 23.7427 57.6797 23.9017 57.9744C24.0653 58.2507 24.0844 58.8517 23.5237 59.1448C23.0044 59.4323 22.0747 59.2988 21.4945 58.6894C20.8911 58.0812 20.7586 56.8616 21.28 55.9083C21.7583 54.9078 23.2023 54.6144 24.2757 55.364C25.342 56.0748 26.1682 57.5507 25.9789 58.9745C25.882 59.6774 25.4654 60.2671 24.8004 60.6319C24.1332 61.0126 23.3149 61.177 22.418 61.4208C21.2233 61.7472 20.1627 62.4776 19.7022 63.7114C19.701 63.7014 19.7031 63.691 19.7014 63.6814C19.6252 62.8145 18.9742 62.0832 18.3456 61.9321C17.0995 61.6395 16.4846 62.1329 16.5177 62.1959C16.5326 62.43 18.7775 61.8975 18.8636 63.7669C18.8806 64.0696 18.8293 64.3985 18.7253 64.7537L18.6264 65.0671C18.4595 65.5263 18.112 66.4812 17.9572 66.9036C19.0798 66.2488 19.1713 66.0755 19.3813 66.2596C19.4616 66.3251 19.5428 66.4374 19.6202 66.5898C20.0335 67.4145 20.2128 68.284 19.8666 68.8504C19.5266 69.4506 18.8525 69.7895 18.2831 69.9193C17.09 70.1555 16.2241 70.0479 16.2195 70.2144C16.2113 70.3091 16.9666 70.6785 18.3936 70.6005C19.6405 70.4719 20.7532 69.7089 20.945 68.3975C22.5083 69.8387 24.8053 69.4276 26.7223 68.4985L26.7227 68.4993ZM21.9475 67.9509C21.5927 67.7768 21.3558 67.4492 21.0903 67.1512C20.9181 66.7717 20.6862 66.4282 20.5772 65.9979C20.0546 64.153 20.9363 62.827 22.6822 62.3403C23.4967 62.107 24.4264 61.9263 25.2592 61.4425C26.111 60.9867 26.767 60.0513 26.8626 59.1009C27.0283 57.4468 26.2883 55.9939 25.2099 55.0635C27.0846 55.8444 28.6119 57.2481 29.6384 58.9294C30.2567 59.9487 30.8 61.2125 30.7379 62.5624C30.6162 65.7099 24.8708 69.681 21.9471 67.9513L21.9475 67.9509Z" fill="#F3996C"/>
<path d="M29.3192 67.4763C28.5854 67.7601 28.1352 67.8173 28.1418 67.8925C28.1456 68.0966 30.5979 68.0861 32.4205 65.9349C33.4226 64.7921 34.1647 62.8975 33.8678 60.8431C33.6239 58.7992 32.4258 56.7197 30.641 55.2476C28.8777 53.6661 26.7103 53.1936 25.4679 51.8379C24.1204 50.5461 23.0847 49.172 22.7567 47.8431C22.4147 46.5254 22.7853 45.3696 23.2019 44.7443C23.6247 44.0978 24.0438 43.8862 24.0003 43.8131C23.9895 43.7676 23.4843 43.8591 22.9017 44.5144C22.3347 45.148 21.7844 46.4277 22.0888 47.9958C22.4789 50.0703 24.5345 52.431 26.0241 53.4908C26.9852 54.1544 28.5762 54.7622 30.019 55.9955C31.6543 57.3491 32.7194 59.1711 32.9845 60.97C33.2872 62.7706 32.7207 64.4122 31.8867 65.502C31.0564 66.6111 30.0447 67.1971 29.3192 67.4759V67.4763Z" fill="#F3996C"/>
<path d="M44.6202 63.12C44.7043 63.0344 44.3299 62.4672 43.4168 61.9137C41.1661 60.5092 38.1037 60.753 35.5147 61.329C35.0323 61.4358 34.5892 61.561 34.3279 61.7505C34.0616 61.935 33.9937 62.117 34.0376 62.1596C34.1432 62.2239 34.5863 61.9976 35.6087 62.0131C37.7944 61.9162 40.5342 61.5034 43.1145 62.5336C44.0102 62.8779 44.5237 63.231 44.6202 63.12Z" fill="#F3996C"/>
<path d="M37.2362 71.4958C37.5198 72.2045 37.5993 72.7025 37.7435 72.7041C37.8644 72.7121 38.0383 72.1803 37.8967 71.3126C37.7654 70.4515 37.2494 69.307 36.3305 68.3554C34.4397 66.4825 32.3703 66.0046 32.2991 66.2037C32.15 66.4842 33.9933 67.3853 35.6336 69.034C36.4357 69.868 36.9608 70.7862 37.2362 71.4958Z" fill="#F3996C"/>
<path d="M36.458 50.4689C35.9176 48.9216 33.9754 47.659 32.4126 48.3051C30.8626 48.9992 30.7623 51.1997 31.6278 52.2019C31.904 52.512 32.1343 52.5734 32.1654 52.5266C32.0834 52.6163 32.6784 53.3384 34.1572 53.5463C35.658 53.6895 37.0113 52.0291 36.458 50.4689Z" fill="#F3996C"/>
<path d="M24.46 44.9902C23.9614 45.3997 23.826 45.9736 23.8438 46.3801C23.8993 47.2445 24.3995 47.5213 24.433 47.4528C24.5192 47.3923 24.25 47.03 24.3515 46.4068C24.448 45.8296 24.8563 45.4243 25.4443 45.3905C26.0311 45.4485 25.6124 45.2302 27.8752 46.6894L27.4279 45.9506C26.7016 44.7911 26.6332 44.7468 26.4899 44.2155C26.3438 43.5456 26.5396 42.9525 26.9554 42.5643C27.5447 41.9791 28.4073 42.1715 28.9999 42.6995C29.5887 43.2038 29.9267 43.9534 30.2343 44.5632C30.5424 45.2001 30.8356 45.6639 30.9375 45.9965C31.0522 46.3296 31.0348 46.5429 31.1052 46.5633C31.1595 46.5863 31.321 46.3751 31.3094 45.9335C31.3032 45.4877 31.08 44.9397 30.8655 44.2948C30.6265 43.6491 30.364 42.7855 29.597 42.0309C29.2198 41.6723 28.7204 41.3564 28.0975 41.2629C26.3885 40.9853 25.0219 42.9421 25.6211 44.5106C25.6257 44.5219 25.6882 44.5866 25.6584 44.5674L25.6178 44.569C25.4663 44.6062 24.99 44.5628 24.46 44.9889V44.9902Z" fill="#F3996C"/>
<path d="M33.1688 39.3391C32.7546 39.1438 32.3231 39.1154 31.9471 39.1755C31.186 39.2966 30.6431 39.7782 30.3756 40.2228C29.8426 41.1514 30.0385 41.7876 30.1109 41.7725C30.2281 41.7926 30.2695 41.1957 30.8145 40.5492C31.7388 39.481 33.3973 39.8496 33.3994 41.1694C33.7945 41.265 33.8355 41.2913 33.8491 41.3055C33.879 41.3071 33.9108 41.303 34.3212 41.3785C34.3813 41.1686 34.4542 41.0179 34.5345 40.8985C34.607 40.7316 34.8538 40.4882 35.0111 40.3709C35.94 39.6455 37.2854 39.5791 37.7033 40.8634C37.9654 41.6673 37.7107 42.5693 37.5484 43.316C36.8084 46.5871 37.1012 46.679 38.2064 43.5076C38.4325 42.7872 38.8595 41.8234 38.5588 40.6063C38.406 40.0358 38.0255 39.393 37.3401 39.0891C36.3839 38.6721 35.2041 38.9793 34.4194 39.6046C34.2856 39.7077 34.1639 39.8258 34.0487 39.9485C33.9572 40.0554 34.0227 39.9823 34.0015 40.0103L33.9924 40.052C33.8417 39.9018 33.6984 39.59 33.1688 39.34V39.3391Z" fill="#F3996C"/>
<path d="M44.4724 44.2385C43.9543 44.1926 44.1088 44.231 44.0802 44.2247C44.0703 44.2347 44.0686 44.2218 44.0686 44.2218C44.1668 43.4976 44.2003 42.7722 43.8197 42.1198C43.2164 41.1114 42.1264 40.9803 41.4444 41.0788C40.0231 41.3756 39.4782 42.0309 39.5113 42.0877C39.5655 42.2379 40.3114 41.7817 41.4961 41.7041C42.056 41.6928 42.8056 41.9161 43.0876 42.5238C43.2358 42.8206 43.2723 43.2084 43.2226 43.6399C43.2569 43.7894 42.8499 45.2753 42.6246 46.0867C43.4019 45.5758 43.6574 45.2886 44.1075 45.1872L44.1841 45.1864C44.3692 45.1843 44.643 45.269 44.8496 45.4381C45.5279 45.9911 45.3076 47.2504 44.6831 47.904C43.2511 49.5636 40.1337 50.385 40.1788 50.5995C40.1946 50.7172 41.2448 50.716 42.8109 50.1028C43.5754 49.7752 44.5051 49.377 45.3499 48.5021C46.8432 46.9085 46.3346 44.5377 44.4724 44.2385Z" fill="#F3996C"/>
<path d="M20.5739 34.6882C22.6743 31.7927 23.6711 28.6427 24.3055 26.4518C24.6136 25.3657 24.8911 24.3907 24.7196 23.6807C24.5623 22.9586 24.1142 22.7783 24.1038 22.8313C24.0446 22.8889 24.3328 23.1398 24.3453 23.7287C24.3858 24.3206 24.055 25.1541 23.6541 26.2368C22.8503 28.3734 21.8018 31.3457 19.7739 34.1364C18.7875 35.5826 17.8694 37.036 17.355 38.5557C17.1078 39.3174 16.9869 40.1105 17.0739 40.8639C17.2863 42.9592 19.8666 44.3466 20.7454 43.1746C21.2423 42.5263 20.8444 42.0463 20.8154 42.1286C20.7499 42.1432 20.9019 42.5389 20.4758 42.9087C20.0878 43.2927 19.1804 43.0673 18.4897 42.2513C18.1895 41.8443 17.8992 41.3735 17.8719 40.7729C17.8375 40.1814 17.9547 39.5245 18.1978 38.8516C18.7017 37.5022 19.5921 36.1219 20.5731 34.6877L20.5739 34.6882Z" fill="#F3996C"/>
<path d="M32.4151 73.2914C32.864 73.3728 33.4462 73.2104 33.7941 72.8369C34.8467 71.7492 34.3216 69.9385 33.0988 69.6184C32.3086 69.4013 31.5728 70.0404 31.668 70.681C31.7765 71.4282 32.5691 71.4394 32.5049 71.2687C32.5012 71.1982 32.3558 71.1523 32.2652 70.9753C31.967 70.4202 32.8325 69.9836 33.2822 70.8C33.4976 71.1857 33.4566 71.8063 33.1116 72.144C32.825 72.47 32.2668 72.3694 31.8862 72.0593C31.5123 71.7533 31.2804 71.2533 31.1027 70.8296C30.9102 70.3667 30.7802 70.08 30.8452 69.9598C30.9052 69.7895 31.0377 69.7724 31.0704 69.7156C31.1346 69.6697 30.8787 69.4472 30.5565 69.7152C30.3988 69.8421 30.3205 70.1159 30.3391 70.3459C30.3557 70.5884 30.3992 70.7866 30.4497 71.0371C30.7209 72.167 31.2754 73.1149 32.4163 73.291L32.4151 73.2914Z" fill="#F3996C"/>
<path d="M40.6919 65.6431C40.6865 65.1727 40.4294 64.512 39.9093 64.2541C38.9568 63.7306 37.8221 64.3196 37.6768 65.1331C37.4084 66.4362 38.6715 67.0514 38.7361 66.8035C38.7733 66.71 38.0118 66.1073 38.3319 65.3343C38.4429 64.9607 39.0413 64.7699 39.4633 65.0333C39.8041 65.156 39.8463 66.1453 39.5469 66.6995C38.9974 67.7159 37.3654 67.6224 37.054 66.0493C36.9649 65.5229 36.8933 65.0354 36.9591 64.8129C36.9964 64.5492 37.2001 64.5583 37.186 64.5099C37.2233 64.4423 36.8916 64.2365 36.6229 64.641C36.3818 65.0116 36.3694 65.5129 36.3752 66.1394C36.3789 66.7505 36.7309 67.7226 37.6511 68.1124C38.9071 68.7423 40.8394 67.8457 40.6919 65.6419V65.6431Z" fill="#F3996C"/>
<path d="M38.893 58.9344C39.903 57.4702 38.8338 55.5619 37.4275 55.7055C36.4084 55.824 35.8435 56.9944 36.3992 57.8141C36.5976 58.1092 36.7935 58.171 36.8328 58.1267C36.8846 58.0762 36.7972 57.9239 36.7446 57.6605C36.5454 56.7302 37.4449 56.1279 38.0462 56.807C38.3762 57.1513 38.4491 57.9018 38.107 58.3634C37.7662 58.8463 37.068 59.0421 36.5202 58.9377C35.7126 58.8092 34.9842 57.9393 35.1408 57.0232C35.1697 56.7594 35.2811 56.6696 35.2621 56.6045C35.224 56.3386 34.2384 57.0432 34.7047 58.3434C35.3462 60.1557 37.8023 60.4095 38.8934 58.9344H38.893Z" fill="#F3996C"/>
<path d="M10.6514 70.3613C10.6514 69.087 9.56973 68.0502 8.23919 68.0502C6.90864 68.0502 5.82698 69.087 5.82698 70.3613C5.82698 71.6356 6.90864 72.6708 8.23919 72.6708C9.56973 72.6708 10.6514 71.6352 10.6514 70.3613Z" fill="#F3996C"/>
</g>
<defs>
<clipPath id="clip0_37_132369">
<rect width="66" height="96" fill="white"/>
</clipPath>
</defs>
</svg>
