<svg width="401" height="401" viewBox="0 0 401 401" fill="none" xmlns="http://www.w3.org/2000/svg">
<g clip-path="url(#clip0_37_127332)">
<path d="M379.701 170.994C375.242 168.244 370.602 165.895 365.805 163.894C376.145 156.144 382.984 143.921 383.366 129.992C384.026 105.792 364.965 85.6351 340.789 84.9715C335.553 84.8278 330.363 85.1212 325.209 85.7965C330.28 73.9039 330.081 59.8946 323.439 47.6496C311.899 26.3728 285.314 18.489 264.059 30.041C259.457 32.5416 255.11 35.3986 250.989 38.5686C249.425 25.7329 242.242 13.7083 230.364 6.44281C209.729 -6.18424 182.774 0.327165 170.162 20.9857C167.65 25.0989 165.478 29.3656 163.604 33.7643C155.872 23.886 143.986 17.3824 130.475 16.965C106.301 16.2168 86.0988 35.2293 85.3514 59.428C85.1901 64.6674 85.4635 69.8655 86.1204 75.0262C74.2579 69.9089 60.2631 70.0585 48.0072 76.6644C26.7112 88.1416 18.7431 114.727 30.2084 136.045C32.6906 140.662 35.5289 145.021 38.68 149.158C25.8536 150.678 13.8159 157.828 6.51469 169.691C-6.17007 190.304 0.238201 217.309 20.83 230.006C25.2891 232.757 29.9291 235.106 34.7264 237.107C24.3863 244.856 17.5472 257.08 17.1656 271.008C16.5047 295.209 35.5663 315.366 59.7419 316.029C64.9779 316.173 70.1686 315.879 75.322 315.204C70.2512 327.097 70.4499 341.106 77.0922 353.351C88.6322 374.628 115.217 382.512 136.472 370.96C141.075 368.459 145.422 365.602 149.542 362.432C151.106 375.268 158.289 387.292 170.168 394.558C190.803 407.185 217.758 400.673 230.369 380.015C232.881 375.902 235.053 371.635 236.927 367.236C244.659 377.115 256.545 383.618 270.056 384.036C294.23 384.784 314.432 365.771 315.18 341.573C315.341 336.333 315.068 331.135 314.411 325.974C326.273 331.092 340.268 330.942 352.524 324.336C373.82 312.859 381.788 286.274 370.323 264.956C367.84 260.339 365.002 255.979 361.851 251.842C374.678 250.322 386.715 243.173 394.016 231.31C406.701 210.697 400.293 183.692 379.701 170.994Z" fill="#E2EFC6"/>
</g>
<defs>
<clipPath id="clip0_37_127332">
<rect width="400.529" height="401" fill="white"/>
</clipPath>
</defs>
</svg>
