<svg width="90" height="11" viewBox="0 0 90 11" fill="none" xmlns="http://www.w3.org/2000/svg">
<g clip-path="url(#clip0_230_411)">
<path fill-rule="evenodd" clip-rule="evenodd" d="M50.0844 7.44299C50.3354 7.44492 50.4629 7.26536 50.6115 7.14372C51.5171 6.39458 52.4805 5.73425 53.5714 5.29017C55.4114 4.54103 57.292 4.31127 59.2267 4.90981C60.1013 5.18012 60.9315 5.54697 61.7521 5.94471C62.9859 6.54711 64.21 7.17075 65.4611 7.73454C66.2393 8.08401 67.0482 8.38328 67.8688 8.62463C69.0563 8.9741 70.2746 9.05712 71.4948 8.7733C72.0548 8.64201 72.5838 8.44121 73.0472 8.08401C74.0859 7.28081 74.3311 6.09531 73.7751 4.87119C73.7152 4.73797 73.6457 4.59509 73.4198 4.6395C73.4411 4.76307 73.4565 4.87892 73.4777 4.99476C73.6148 5.7497 73.3909 6.30769 72.7421 6.70157C71.5875 7.40245 70.3344 7.64959 69.0234 7.30784C68.2782 7.11476 67.5502 6.82514 66.8474 6.50656C65.66 5.96595 64.5015 5.36161 63.3257 4.79782C61.7695 4.05254 60.1592 3.49455 58.4177 3.38449C57.3828 3.31885 56.3537 3.34395 55.3342 3.55826C53.9112 3.85947 52.7045 4.57772 51.6387 5.53538C51.1541 5.96981 50.7235 6.46409 50.2756 6.9352C50.1501 7.06842 50.0207 7.21323 50.0844 7.44299Z" fill="#06471D"/>
<path fill-rule="evenodd" clip-rule="evenodd" d="M64.5691 3.57188C64.4822 3.45797 64.4069 3.33247 64.3065 3.234C64.181 3.11236 64.042 2.99651 63.8933 2.90383C62.6152 2.11994 61.2964 1.42099 59.831 1.03677C58.2111 0.611997 56.5737 0.606205 55.0002 1.11786C53.415 1.63531 52.0364 2.53698 51.0672 3.95611C50.654 4.56237 50.2447 5.17057 49.8295 5.77683C49.733 5.91778 49.7021 6.05293 49.8508 6.17071C49.9859 6.2769 50.0941 6.2016 50.208 6.10506C51.0633 5.36944 51.909 4.62416 52.7817 3.9117C53.554 3.28226 54.3727 2.70689 55.3574 2.46168C56.2687 2.23578 57.1993 2.10449 58.1435 2.15276C60.1573 2.25316 62.1093 2.62966 63.9628 3.4541C64.1405 3.53327 64.3316 3.58733 64.515 3.65104C64.5324 3.62401 64.5517 3.59698 64.5691 3.56995V3.57188Z" fill="#06471D"/>
<path fill-rule="evenodd" clip-rule="evenodd" d="M89.5225 1.50011C89.2715 1.49818 89.1441 1.67774 88.9954 1.79938C88.0899 2.54852 87.1264 3.20885 86.0355 3.65293C84.1955 4.40207 82.3149 4.63183 80.3803 4.03329C79.5056 3.76298 78.6754 3.39613 77.8548 2.99839C76.6211 2.39599 75.3969 1.77235 74.1458 1.20856C73.3677 0.85909 72.5587 0.559819 71.7381 0.318472C70.5507 -0.0309993 69.3324 -0.114023 68.1121 0.169802C67.5522 0.301095 67.0232 0.501896 66.5598 0.85909C65.521 1.66229 65.2758 2.84779 65.8319 4.07191C65.8917 4.20513 65.9612 4.34801 66.1871 4.3036C66.1659 4.18003 66.1504 4.06418 66.1292 3.94834C65.9921 3.1934 66.2161 2.63541 66.8648 2.24153C68.0194 1.54066 69.2725 1.29352 70.5835 1.63526C71.3288 1.82834 72.0567 2.11796 72.7595 2.43654C73.9469 2.97716 75.1054 3.58149 76.2812 4.14528C77.8374 4.89056 79.4477 5.44855 81.1893 5.55861C82.2242 5.62425 83.2533 5.59915 84.2727 5.38484C85.6957 5.08364 86.9025 4.36539 87.9682 3.40772C88.4529 2.97329 88.8834 2.47901 89.3314 2.0079C89.4569 1.87468 89.5862 1.72987 89.5225 1.50011Z" fill="#06471D"/>
<path fill-rule="evenodd" clip-rule="evenodd" d="M75.0397 5.37122C75.1266 5.48513 75.2019 5.61063 75.3023 5.7091C75.4278 5.83074 75.5668 5.94659 75.7154 6.03927C76.9936 6.82316 78.3123 7.5221 79.7778 7.90633C81.3977 8.3311 83.035 8.33689 84.6086 7.82524C86.1938 7.30779 87.5724 6.40611 88.5416 4.98699C88.9548 4.38073 89.3641 3.77253 89.7792 3.16627C89.8758 3.02532 89.9067 2.89016 89.758 2.77239C89.6229 2.66619 89.5147 2.74149 89.4008 2.83803C88.5455 3.57366 87.6998 4.31894 86.8271 5.0314C86.0548 5.66083 85.2361 6.23621 84.2514 6.48141C83.3401 6.70732 82.4095 6.83861 81.4653 6.79034C79.4515 6.68994 77.4995 6.31344 75.6459 5.48899C75.4683 5.40983 75.2791 5.35577 75.0937 5.29205C75.0764 5.31908 75.057 5.34612 75.0397 5.37315V5.37122Z" fill="#06471D"/>
<path fill-rule="evenodd" clip-rule="evenodd" d="M39.776 7.44299C39.525 7.44492 39.3976 7.26536 39.2489 7.14372C38.3434 6.39458 37.3799 5.73425 36.289 5.29017C34.449 4.54103 32.5684 4.31127 30.6338 4.90981C29.7591 5.18012 28.9289 5.54697 28.1083 5.94471C26.8745 6.54711 25.6504 7.17075 24.3993 7.73454C23.6212 8.08401 22.8122 8.38328 21.9916 8.62463C20.8042 8.9741 19.5858 9.05712 18.3656 8.7733C17.8057 8.64201 17.2766 8.44121 16.8132 8.08401C15.7745 7.28081 15.5293 6.09531 16.0853 4.87119C16.1452 4.73797 16.2147 4.59509 16.4406 4.6395C16.4194 4.76307 16.4039 4.87892 16.3827 4.99476C16.2456 5.7497 16.4696 6.30769 17.1183 6.70157C18.2729 7.40245 19.526 7.64959 20.837 7.30784C21.5823 7.11476 22.3102 6.82514 23.013 6.50656C24.2004 5.96595 25.3589 5.36161 26.5347 4.79782C28.0909 4.05254 29.7012 3.49455 31.4428 3.38449C32.4777 3.31885 33.5068 3.34395 34.5262 3.55826C35.9492 3.85947 37.1559 4.57772 38.2217 5.53538C38.7064 5.96981 39.1369 6.46409 39.5849 6.9352C39.7104 7.06842 39.8397 7.21323 39.776 7.44299Z" fill="#06471D"/>
<path fill-rule="evenodd" clip-rule="evenodd" d="M25.2932 3.57188C25.3801 3.45797 25.4554 3.33247 25.5558 3.234C25.6813 3.11236 25.8203 2.99651 25.969 2.90383C27.2472 2.11994 28.5659 1.42099 30.0313 1.03677C31.6513 0.611997 33.2886 0.606205 34.8622 1.11786C36.4473 1.63531 37.8259 2.53698 38.7952 3.95611C39.2083 4.56237 39.6177 5.17057 40.0328 5.77683C40.1293 5.91778 40.1602 6.05293 40.0115 6.17071C39.8764 6.2769 39.7683 6.2016 39.6544 6.10506C38.799 5.36944 37.9533 4.62416 37.0806 3.9117C36.3083 3.28226 35.4897 2.70689 34.505 2.46168C33.5936 2.23578 32.663 2.10449 31.7188 2.15276C29.705 2.25316 27.753 2.62966 25.8995 3.4541C25.7218 3.53327 25.5326 3.58733 25.3473 3.65104C25.3299 3.62401 25.3106 3.59698 25.2932 3.56995V3.57188Z" fill="#06471D"/>
<path fill-rule="evenodd" clip-rule="evenodd" d="M0.337895 1.50011C0.588897 1.49818 0.716328 1.67774 0.864998 1.79938C1.77053 2.54852 2.73399 3.20885 3.82488 3.65293C5.66492 4.40207 7.54549 4.63183 9.48013 4.03329C10.3548 3.76298 11.185 3.39613 12.0056 2.99839C13.2394 2.39599 14.4635 1.77235 15.7146 1.20856C16.4927 0.85909 17.3017 0.559819 18.1223 0.318472C19.3097 -0.0309993 20.5281 -0.114023 21.7483 0.169802C22.3082 0.301095 22.8373 0.501896 23.3007 0.85909C24.3394 1.66229 24.5846 2.84779 24.0286 4.07191C23.9687 4.20513 23.8992 4.34801 23.6733 4.3036C23.6945 4.18003 23.71 4.06418 23.7312 3.94834C23.8683 3.1934 23.6443 2.63541 22.9956 2.24153C21.841 1.54066 20.5879 1.29352 19.2769 1.63526C18.5316 1.82834 17.8037 2.11796 17.1009 2.43654C15.9135 2.97716 14.755 3.58149 13.5792 4.14528C12.023 4.89056 10.4127 5.44855 8.67114 5.55861C7.63624 5.62425 6.60714 5.59915 5.58768 5.38484C4.1647 5.08364 2.95796 4.36539 1.89217 3.40772C1.40755 2.97329 0.976983 2.47901 0.529043 2.0079C0.403542 1.87468 0.27418 1.72987 0.337895 1.50011Z" fill="#06471D"/>
<path fill-rule="evenodd" clip-rule="evenodd" d="M14.8226 5.37122C14.7357 5.48513 14.6604 5.61063 14.56 5.7091C14.4345 5.83074 14.2955 5.94659 14.1468 6.03927C12.8686 6.82316 11.5499 7.5221 10.0845 7.90633C8.46453 8.3311 6.82723 8.33689 5.25364 7.82524C3.66847 7.30779 2.2899 6.40611 1.32065 4.98699C0.90746 4.38073 0.498135 3.77253 0.0830176 3.16627C-0.0135214 3.02532 -0.0444139 2.89016 0.104256 2.77239C0.239411 2.66619 0.347534 2.74149 0.46145 2.83803C1.31679 3.57366 2.16247 4.31894 3.03518 5.0314C3.80749 5.66083 4.62614 6.23621 5.61084 6.48141C6.52217 6.70732 7.4528 6.83861 8.39695 6.79034C10.4108 6.68994 12.3628 6.31344 14.2163 5.48899C14.394 5.40983 14.5851 5.35577 14.7685 5.29205C14.7859 5.31908 14.8052 5.34612 14.8226 5.37315V5.37122Z" fill="#06471D"/>
<path fill-rule="evenodd" clip-rule="evenodd" d="M42.0968 8.67474C42.1025 8.74232 42.1064 8.81955 42.1161 8.89678C42.1547 9.18447 42.2918 9.40844 42.5408 9.56483C42.7687 9.70964 42.9772 9.63241 43.1838 9.51463C43.3344 9.42967 43.4464 9.47215 43.5275 9.6131C43.6143 9.75984 43.6819 9.92009 43.7804 10.0591C44.0353 10.4221 44.4446 10.4762 44.7921 10.2039C44.8423 10.1653 44.8906 10.1248 44.9408 10.0842C45.2671 10.5032 45.8946 10.4858 46.1765 9.89306C46.2055 9.83128 46.2363 9.76949 46.2692 9.70964C46.4236 9.43547 46.4545 9.42581 46.7499 9.55518C47.0724 9.69612 47.3253 9.64978 47.5319 9.36789C47.6284 9.2366 47.6709 9.06283 47.7269 8.9045C47.7539 8.82534 47.752 8.73652 47.7597 8.68053C48.0146 8.69212 48.2424 8.73073 48.4625 8.70563C48.8622 8.65929 49.036 8.41022 48.9896 8.01634C48.9452 7.62247 48.9974 7.524 49.3835 7.38305C49.7426 7.24983 49.9917 7.01427 50.0709 6.64163C50.1713 6.16473 50.0072 5.76699 49.6422 5.45034C49.5669 5.38662 49.4858 5.33063 49.4241 5.28236C49.5418 5.11052 49.6693 4.97344 49.7426 4.81125C49.9492 4.35945 49.8276 4.08528 49.3681 3.89027C49.2696 3.84779 49.175 3.79373 49.0862 3.74932C49.3314 2.78779 49.0379 2.48659 47.893 2.48273C47.8987 2.38233 47.9103 2.28386 47.9084 2.18539C47.8891 1.58299 47.3948 1.26055 46.8503 1.49224C46.5993 1.59843 46.5742 1.59071 46.4024 1.35709C46.3271 1.25669 46.2595 1.15049 46.1707 1.06168C45.9313 0.818399 45.5393 0.741168 45.2574 0.891769C45.1339 0.959346 45.0315 1.06747 44.9157 1.15822C44.8867 1.13312 44.8616 1.11188 44.8365 1.08871C44.462 0.710275 43.9638 0.723791 43.6143 1.12732C43.5545 1.19683 43.5062 1.27406 43.4522 1.34743C43.2745 1.59071 43.2475 1.60809 42.9791 1.47679C42.7397 1.35902 42.5177 1.36481 42.2995 1.50769C42.0601 1.66408 41.9577 1.89577 41.9481 2.17574C41.9442 2.28386 41.9481 2.39005 41.9481 2.48466C41.7917 2.48466 41.6662 2.47694 41.5407 2.48466C40.8495 2.53293 40.5772 2.89785 40.7278 3.57169C40.7568 3.70491 40.7375 3.79373 40.6023 3.842C40.527 3.86903 40.4517 3.89413 40.3784 3.92888C40.0772 4.06983 39.9632 4.26291 40.0463 4.59114C40.0907 4.77264 40.2027 4.93868 40.2953 5.10473C40.3301 5.16651 40.3919 5.21478 40.4459 5.27464C40.3378 5.35187 40.2509 5.40786 40.1737 5.47351C39.5694 5.98323 39.5694 7.08571 40.471 7.38498C40.8553 7.51241 40.8881 7.59736 40.863 8.026C40.8379 8.45656 41.0059 8.67474 41.4326 8.71336C41.6411 8.73073 41.8554 8.69019 42.091 8.67474H42.0968Z" fill="#06471D"/>
<path fill-rule="evenodd" clip-rule="evenodd" d="M43.819 6.44083C43.7071 6.56633 43.568 6.71693 43.4348 6.87139C43.0718 7.29424 42.703 7.71515 42.3497 8.14764C42.118 8.43146 41.8265 8.53766 41.4731 8.49518C41.1912 8.46236 41.0773 8.31948 41.0966 8.03179C41.0986 7.99704 41.1063 7.96422 41.1102 7.92946C41.1584 7.51048 41.0291 7.29617 40.6333 7.13591C40.1525 6.9409 39.9498 6.5142 40.1061 6.03923C40.1699 5.84422 40.3031 5.70907 40.4691 5.60094C40.7047 5.44648 40.9711 5.36539 41.2453 5.37504C41.9964 5.404 42.7455 5.4542 43.4831 5.49475C43.5931 5.8056 43.6955 6.08943 43.821 6.4389L43.819 6.44083ZM41.7087 8.05689C42.201 7.84451 43.3865 6.74203 43.4985 6.40608C42.8556 6.92739 42.2165 7.41974 41.7087 8.05689ZM43.1626 5.8307C42.3459 5.96393 41.5272 6.09908 40.7279 6.31919C41.56 6.25354 42.3787 6.12998 43.1626 5.8307ZM43.0641 6.34622C43.0448 6.3134 43.0236 6.28058 43.0042 6.24775C42.6567 6.44662 42.3014 6.63584 41.9945 6.89649C42.0099 6.92159 42.0273 6.94863 42.0427 6.97373C42.3825 6.7652 42.7224 6.55668 43.0641 6.34815V6.34622Z" fill="#06471D"/>
<path fill-rule="evenodd" clip-rule="evenodd" d="M46.0375 6.42155C46.1495 6.10877 46.2499 5.83267 46.358 5.52953C46.3464 5.53726 46.3657 5.51409 46.3831 5.51216C47.1206 5.46389 47.8601 5.39438 48.5996 5.38086C48.8487 5.37507 49.1151 5.47161 49.3468 5.58166C49.6886 5.74578 49.8276 6.05277 49.787 6.43314C49.7484 6.78068 49.5766 7.01623 49.2329 7.13787C48.8236 7.28268 48.702 7.4719 48.7502 7.92177C48.8062 8.43536 48.5533 8.51066 48.1806 8.49907C47.9528 8.49328 47.7501 8.41798 47.6014 8.24807C47.0724 7.63794 46.5511 7.02009 46.0375 6.41962V6.42155ZM48.1459 8.0743C47.6381 7.43328 47.0144 6.91583 46.3406 6.45438C46.8716 7.07029 47.4412 7.64567 48.1459 8.0743ZM46.6881 5.83073C47.4798 6.12807 48.3061 6.25744 49.146 6.32115C48.337 6.10491 47.5145 5.96203 46.6881 5.83073ZM47.8099 6.97569C47.5763 6.63587 47.0202 6.30378 46.7345 6.30957C47.1322 6.55671 47.4701 6.76523 47.8099 6.97569Z" fill="#06471D"/>
<path fill-rule="evenodd" clip-rule="evenodd" d="M46.3059 5.27277C46.194 5.07583 46.0839 4.87889 45.9507 4.64527C46.3407 4.23401 46.7384 3.79765 47.1574 3.38447C47.3486 3.19525 47.5725 3.03114 47.8004 2.88633C48.0591 2.72028 48.3468 2.74538 48.621 2.86123C48.8835 2.97128 48.953 3.12188 48.8971 3.40378C48.8063 3.86716 48.843 3.93281 49.2929 4.12009C49.5844 4.24173 49.6385 4.3209 49.5999 4.56804C49.5439 4.93102 49.3855 5.14148 49.1326 5.15499C48.2 5.20326 47.2675 5.24188 46.3349 5.28435C46.3253 5.28435 46.3137 5.27663 46.304 5.2747L46.3059 5.27277ZM46.4411 4.55838C47.0338 4.2205 47.5455 3.78221 48.0089 3.286C47.4065 3.61037 46.9334 4.09693 46.4411 4.55838ZM48.4665 4.75725C47.893 4.76304 47.3351 4.86151 46.7886 5.02756C47.3563 4.99088 47.9259 4.96191 48.4665 4.75725ZM47.3196 4.48887C47.8062 4.43674 48.2425 4.2456 48.4279 4.02162C48.0591 4.17802 47.6884 4.33248 47.3196 4.48887Z" fill="#06471D"/>
<path fill-rule="evenodd" clip-rule="evenodd" d="M43.904 4.64153C43.7766 4.87129 43.6665 5.06823 43.5449 5.28834C43.1298 5.26324 42.7011 5.23235 42.2706 5.21111C41.7821 5.18794 41.2917 5.17636 40.8032 5.15898C40.446 5.14547 40.1371 4.68208 40.2684 4.34612C40.2915 4.2882 40.3475 4.23607 40.3997 4.19745C40.4537 4.15884 40.5232 4.13953 40.585 4.1125C41.0117 3.9368 41.0503 3.86536 40.9596 3.41742C40.8997 3.1278 40.9847 2.95982 41.2569 2.84977C41.4867 2.75902 41.7319 2.73006 41.9559 2.83625C42.1586 2.93086 42.3691 3.04671 42.5274 3.20117C42.9966 3.66456 43.4426 4.15304 43.906 4.64153H43.904ZM43.5198 4.57782C42.929 4.10284 42.4482 3.61436 41.8207 3.22434C42.0582 3.61822 43.1317 4.49093 43.5198 4.57782ZM41.3882 4.70139C41.3844 4.74193 41.3805 4.78248 41.3766 4.82302C41.9404 4.90605 42.5042 4.98907 43.068 5.07016C43.0738 5.03927 43.0777 5.00645 43.0834 4.97556C42.5197 4.88481 41.9539 4.79213 41.3901 4.70139H41.3882ZM41.4346 4.02368C41.4172 4.05457 41.3998 4.08547 41.3844 4.11829C41.7531 4.27082 42.1238 4.42335 42.4926 4.57589C42.5042 4.54692 42.5158 4.51796 42.5293 4.489C42.1644 4.33454 41.7995 4.17814 41.4346 4.02368Z" fill="#06471D"/>
<path fill-rule="evenodd" clip-rule="evenodd" d="M44.8192 4.23211C44.5701 4.32672 44.3172 4.42326 44.0468 4.52559C44.0372 4.52173 43.9986 4.51594 43.9793 4.49277C43.5043 3.96953 43.0313 3.44822 42.5621 2.92111C42.4578 2.80334 42.3613 2.67204 42.286 2.53303C42.1431 2.26851 42.1836 1.98855 42.3709 1.80898C42.5196 1.66611 42.6799 1.63908 42.8691 1.72403C43.3189 1.92676 43.4348 1.89201 43.709 1.47689C43.7205 1.45758 43.7321 1.43827 43.7456 1.41897C43.9445 1.12549 44.1781 0.996126 44.3847 1.0637C44.6126 1.139 44.8462 1.48461 44.8481 1.76265C44.85 2.03489 44.8481 2.30906 44.8443 2.5813C44.8404 2.85354 44.8269 3.12771 44.823 3.39995C44.8192 3.67219 44.823 3.94443 44.823 4.23018L44.8192 4.23211ZM43.7997 2.96552C43.7823 2.88057 43.763 2.79754 43.7456 2.71259C43.7302 2.71838 43.7128 2.72224 43.6974 2.72804C43.7341 2.80527 43.7688 2.8825 43.8055 2.95973C43.8905 3.33816 44.0546 3.68377 44.2727 4.07379C44.2361 3.71659 43.9986 3.18949 43.7978 2.96552H43.7997ZM43.9271 4.1182C43.6066 3.50807 43.178 2.97517 42.7474 2.44228C43.0177 3.08716 43.4155 3.64322 43.9271 4.1182ZM44.2921 2.01172C44.2206 2.58709 44.3731 3.45015 44.5739 3.70308C44.4735 3.09681 44.3828 2.55426 44.2921 2.01172Z" fill="#06471D"/>
<path fill-rule="evenodd" clip-rule="evenodd" d="M45.8348 4.53744C45.5568 4.43125 45.3135 4.33857 45.0529 4.23817C45.049 4.17059 45.0413 4.09529 45.0393 4.01806C45.0297 3.30174 45.0316 2.58542 45.0085 1.8691C45.0007 1.63548 45.0625 1.44626 45.2054 1.27249C45.4409 0.984806 45.6958 0.963567 45.9603 1.22808C46.0549 1.32269 46.1244 1.44433 46.2017 1.55632C46.416 1.86524 46.5956 1.91544 46.9238 1.75905C47.3254 1.5679 47.7058 1.82083 47.642 2.26298C47.6131 2.4522 47.5107 2.65686 47.3852 2.8036C46.8832 3.38863 46.3581 3.95627 45.8348 4.53551V4.53744ZM47.1227 2.45027C46.6496 2.90014 46.0028 3.85781 45.9758 4.12618C46.4546 3.61453 46.8466 3.07198 47.1227 2.45027ZM45.2961 3.62611C45.329 3.62804 45.3618 3.62997 45.3965 3.6319C45.5413 3.08356 45.6012 2.52364 45.6456 1.95985C45.6224 1.95599 45.5973 1.95213 45.5742 1.94826C45.4815 2.50819 45.3888 3.06619 45.2961 3.62611ZM45.524 4.02192C45.5529 4.03737 45.5819 4.05474 45.6109 4.07019C45.7692 3.70141 45.9275 3.3307 46.0858 2.96192C46.0646 2.95227 46.0434 2.94262 46.0221 2.93103C45.9584 3.05653 45.8908 3.1801 45.8329 3.30946C45.7267 3.54502 45.6263 3.78444 45.524 4.02192Z" fill="#06471D"/>
<path fill-rule="evenodd" clip-rule="evenodd" d="M45.134 6.9159C45.3946 6.79426 45.6205 6.69 45.9237 6.54712C45.9507 6.59346 45.9893 6.67841 46.0472 6.74792C46.499 7.29047 46.9508 7.83109 47.4104 8.36784C47.6054 8.59568 47.617 8.84282 47.5069 9.10154C47.3814 9.39116 47.0899 9.49349 46.8408 9.31586C46.5454 9.10347 46.2789 9.15753 46.0781 9.50314C46.0028 9.63057 45.941 9.76766 45.8522 9.88351C45.6302 10.177 45.3 10.1345 45.1629 9.79083C45.105 9.64602 45.076 9.47997 45.076 9.32551C45.0818 8.55127 45.1011 7.77896 45.1166 7.00471C45.1166 6.97189 45.132 6.93907 45.1378 6.9159H45.134ZM45.3695 7.18041C45.2865 7.65346 45.4757 8.81385 45.6765 9.06679C45.636 8.39874 45.5375 7.78475 45.3695 7.18041ZM45.9584 6.91397C45.9372 6.92941 45.9159 6.94486 45.8966 6.95838C46.0472 7.3426 46.7462 8.36205 47.0165 8.51072C46.6631 7.97783 46.3117 7.44493 45.9584 6.91204V6.91397ZM45.9372 8.08981C45.9603 8.07823 45.9854 8.06471 46.0086 8.05313C45.8928 7.81757 45.8696 7.54147 45.7209 7.31943C45.692 7.33102 45.6649 7.3426 45.636 7.35418C45.7364 7.59939 45.8368 7.8446 45.9372 8.08981Z" fill="#06471D"/>
<path fill-rule="evenodd" clip-rule="evenodd" d="M43.987 6.57224C44.2477 6.69388 44.4717 6.80008 44.7381 6.92365C44.7478 7.02405 44.769 7.15727 44.769 7.29049C44.7767 7.97206 44.7825 8.65555 44.7786 9.33712C44.7786 9.48193 44.7555 9.63639 44.7053 9.76961C44.5682 10.1345 44.2322 10.1789 44.0005 9.87001C43.9137 9.75224 43.8519 9.61515 43.7727 9.48965C43.5603 9.15177 43.3769 9.10736 43.039 9.30623C42.7726 9.46262 42.5331 9.40663 42.3748 9.1479C42.2474 8.94131 42.257 8.59956 42.4154 8.41035C42.8942 7.83304 43.3808 7.2596 43.8654 6.68616C43.9021 6.64368 43.9465 6.60893 43.987 6.57031V6.57224ZM44.5257 7.17465C44.2959 7.6419 44.1434 8.83319 44.267 9.06874C44.4485 8.43738 44.4871 7.80601 44.5257 7.17465ZM43.9986 6.98543C43.9774 6.97191 43.9561 6.9584 43.9349 6.94295C43.5835 7.29822 42.9618 8.27133 42.9347 8.57446C43.29 8.0435 43.6433 7.51446 43.9986 6.9835V6.98543ZM44.2206 7.36C44.1898 7.34262 44.1608 7.32525 44.1299 7.3098C44.0102 7.52798 43.9484 7.76933 43.9407 8.02998C44.0334 7.80601 44.128 7.58397 44.2206 7.36Z" fill="#06471D"/>
<path fill-rule="evenodd" clip-rule="evenodd" d="M44.9235 4.58545C45.5413 4.58545 46.0028 5.0276 46.0028 5.61842C46.0028 6.18027 45.5239 6.63594 44.9312 6.6398C44.3346 6.64366 43.8615 6.19765 43.8557 5.62807C43.8519 5.02953 44.3037 4.58738 44.9215 4.58545H44.9235ZM44.9293 4.86541C44.4581 4.86541 44.126 5.16661 44.1222 5.60297C44.1183 6.04512 44.4717 6.39652 44.9254 6.39652C45.383 6.39652 45.7305 6.05477 45.7286 5.60683C45.7286 5.16854 45.4004 4.86734 44.9273 4.86734L44.9293 4.86541Z" fill="#06471D"/>
<path fill-rule="evenodd" clip-rule="evenodd" d="M41.7087 8.05707C42.2165 7.41991 42.8556 6.92756 43.4986 6.40625C43.3866 6.74221 42.2011 7.84468 41.7087 8.05707Z" fill="#06471D"/>
<path fill-rule="evenodd" clip-rule="evenodd" d="M43.1625 5.83105C42.3786 6.13226 41.558 6.2539 40.7278 6.31954C41.5271 6.0975 42.3458 5.96428 43.1625 5.83105Z" fill="#06471D"/>
<path fill-rule="evenodd" clip-rule="evenodd" d="M43.0642 6.34625C42.7243 6.55477 42.3845 6.7633 42.0428 6.97182C42.0273 6.94672 42.01 6.91969 41.9945 6.89459C42.3015 6.63394 42.6568 6.44472 43.0043 6.24585C43.0236 6.27867 43.0448 6.3115 43.0642 6.34432V6.34625Z" fill="#06471D"/>
<path fill-rule="evenodd" clip-rule="evenodd" d="M48.146 8.07451C47.4393 7.64395 46.8717 7.07051 46.3407 6.45459C47.0145 6.91605 47.6382 7.43349 48.146 8.07451Z" fill="#06471D"/>
<path fill-rule="evenodd" clip-rule="evenodd" d="M46.6882 5.83105C47.5146 5.96235 48.3371 6.10523 49.1461 6.32147C48.3062 6.25776 47.4799 6.13033 46.6882 5.83105Z" fill="#06471D"/>
<path fill-rule="evenodd" clip-rule="evenodd" d="M47.8099 6.97576C47.4701 6.76531 47.1322 6.55678 46.7345 6.30964C47.0203 6.30385 47.5763 6.63595 47.8099 6.97576Z" fill="#06471D"/>
<path fill-rule="evenodd" clip-rule="evenodd" d="M46.441 4.55852C46.9353 4.09513 47.4064 3.60857 48.0088 3.28613C47.5454 3.78234 47.0319 4.22063 46.441 4.55852Z" fill="#06471D"/>
<path fill-rule="evenodd" clip-rule="evenodd" d="M48.4664 4.75732C47.9258 4.96199 47.3562 4.99288 46.7886 5.02763C47.335 4.86159 47.893 4.76312 48.4664 4.75732Z" fill="#06471D"/>
<path fill-rule="evenodd" clip-rule="evenodd" d="M47.3196 4.48898C47.6884 4.33258 48.0591 4.17812 48.4278 4.02173C48.2406 4.24377 47.8061 4.43685 47.3196 4.48898Z" fill="#06471D"/>
<path fill-rule="evenodd" clip-rule="evenodd" d="M43.5198 4.57784C43.1336 4.49096 42.0582 3.61824 41.8207 3.22437C42.4463 3.61438 42.9289 4.1048 43.5198 4.57784Z" fill="#06471D"/>
<path fill-rule="evenodd" clip-rule="evenodd" d="M41.3882 4.70142C41.9519 4.79216 42.5177 4.88484 43.0814 4.97559C43.0757 5.00648 43.0718 5.0393 43.066 5.07019C42.5022 4.98717 41.9384 4.90415 41.3746 4.82305C41.3785 4.78251 41.3824 4.74196 41.3862 4.70142H41.3882Z" fill="#06471D"/>
<path fill-rule="evenodd" clip-rule="evenodd" d="M41.4346 4.02344C41.7995 4.1779 42.1644 4.33429 42.5294 4.48876C42.5178 4.51772 42.5062 4.54668 42.4927 4.57564C42.1239 4.42311 41.7532 4.27058 41.3844 4.11805C41.4018 4.08715 41.4172 4.05626 41.4346 4.02344Z" fill="#06471D"/>
<path fill-rule="evenodd" clip-rule="evenodd" d="M43.9271 4.11806C43.4155 3.64308 43.0158 3.08895 42.7474 2.44214C43.178 2.9731 43.6086 3.50793 43.9271 4.11806Z" fill="#06471D"/>
<path fill-rule="evenodd" clip-rule="evenodd" d="M44.292 2.01172C44.3828 2.55427 44.4735 3.09682 44.5739 3.70308C44.3731 3.45015 44.2206 2.58709 44.292 2.01172Z" fill="#06471D"/>
<path fill-rule="evenodd" clip-rule="evenodd" d="M43.7997 2.96746C44.0005 3.19143 44.238 3.71854 44.2747 4.07573C44.0565 3.68571 43.8924 3.3401 43.8074 2.96167L43.7997 2.96939V2.96746Z" fill="#06471D"/>
<path fill-rule="evenodd" clip-rule="evenodd" d="M43.8055 2.95979C43.7688 2.88256 43.7341 2.80532 43.6974 2.72809C43.7128 2.7223 43.7302 2.71844 43.7457 2.71265C43.763 2.7976 43.7823 2.88062 43.7997 2.96558L43.8074 2.95979H43.8055Z" fill="#06471D"/>
<path fill-rule="evenodd" clip-rule="evenodd" d="M47.1226 2.4502C46.8465 3.07191 46.4545 3.61252 45.9757 4.12611C46.0027 3.85966 46.6496 2.902 47.1226 2.4502Z" fill="#06471D"/>
<path fill-rule="evenodd" clip-rule="evenodd" d="M45.296 3.62585C45.3887 3.06592 45.4814 2.50792 45.5741 1.948C45.5972 1.95186 45.6223 1.95572 45.6455 1.95958C45.6011 2.52337 45.5412 3.0833 45.3964 3.63164C45.3636 3.62971 45.3308 3.62778 45.296 3.62585Z" fill="#06471D"/>
<path fill-rule="evenodd" clip-rule="evenodd" d="M45.5239 4.0218C45.6263 3.78431 45.7267 3.5449 45.8329 3.30934C45.8908 3.18191 45.9584 3.05641 46.0221 2.93091C46.0433 2.94056 46.0645 2.95022 46.0858 2.9618C45.9275 3.33058 45.7691 3.70129 45.6108 4.07007C45.5818 4.05462 45.5529 4.03724 45.5239 4.0218Z" fill="#06471D"/>
<path fill-rule="evenodd" clip-rule="evenodd" d="M45.3695 7.18042C45.5394 7.78475 45.636 8.39874 45.6765 9.06679C45.4757 8.81386 45.2865 7.65346 45.3695 7.18042Z" fill="#06471D"/>
<path fill-rule="evenodd" clip-rule="evenodd" d="M45.9584 6.91406C46.3117 7.44696 46.6631 7.97985 47.0165 8.51275C46.7461 8.36408 46.0472 7.34463 45.8966 6.9604C45.9178 6.94495 45.9391 6.92951 45.9584 6.91599V6.91406Z" fill="#06471D"/>
<path fill-rule="evenodd" clip-rule="evenodd" d="M45.9371 8.08972C45.8367 7.84451 45.7363 7.5993 45.6359 7.35409C45.6648 7.34251 45.6919 7.33092 45.7208 7.31934C45.8695 7.54138 45.8927 7.81748 46.0085 8.05303C45.9853 8.06462 45.9602 8.07813 45.9371 8.08972Z" fill="#06471D"/>
<path fill-rule="evenodd" clip-rule="evenodd" d="M44.5257 7.1748C44.487 7.80617 44.4484 8.43753 44.2669 9.0689C44.1434 8.83528 44.2959 7.64398 44.5257 7.1748Z" fill="#06471D"/>
<path fill-rule="evenodd" clip-rule="evenodd" d="M43.9987 6.98537C43.6434 7.51633 43.2901 8.04537 42.9348 8.57633C42.9599 8.2732 43.5836 7.30009 43.935 6.94482C43.9562 6.95834 43.9774 6.97185 43.9987 6.9873V6.98537Z" fill="#06471D"/>
<path fill-rule="evenodd" clip-rule="evenodd" d="M44.2206 7.36001C44.128 7.58398 44.0334 7.80602 43.9407 8.03C43.9484 7.76741 44.0102 7.52799 44.1299 7.30981C44.1608 7.32719 44.1897 7.34457 44.2206 7.36001Z" fill="#06471D"/>
<path fill-rule="evenodd" clip-rule="evenodd" d="M44.9292 4.86521C45.4023 4.86521 45.7286 5.16834 45.7305 5.6047C45.7305 6.05264 45.3849 6.39439 44.9273 6.39439C44.4736 6.39439 44.1183 6.04492 44.1241 5.60084C44.128 5.16448 44.4581 4.86328 44.9312 4.86328L44.9292 4.86521Z" fill="#06471D"/>
</g>
<defs>
<clipPath id="clip0_230_411">
<rect width="89.8604" height="10.3741" fill="white"/>
</clipPath>
</defs>
</svg>
